<svg width="110" height="116" viewBox="0 0 110 116" fill="none" xmlns="http://www.w3.org/2000/svg">
<path d="M-5.07052e-06 58C-2.27015e-06 90.0325 25.9675 116 58 116L90 116C101.046 116 110 107.046 110 96L110 20C110 8.95429 101.046 -8.8337e-06 90 -7.86805e-06L58 -5.07052e-06C25.9675 -2.27015e-06 -7.87089e-06 25.9675 -5.07052e-06 58V58Z" fill="#B0995D"/>
<path d="M13.4351 59.2083C13.4351 84.7899 34.173 105.528 59.7545 105.528L70.7633 105.528C87.3318 105.528 100.763 92.0963 100.763 75.5278L100.763 45.8889C100.763 27.6635 85.9887 12.8889 67.7633 12.8889L59.7545 12.8889C34.173 12.8889 13.4351 33.6268 13.4351 59.2083Z" fill="#FFFACF"/>
</svg>
