<svg width="231" height="312" viewBox="0 0 231 312" fill="none" xmlns="http://www.w3.org/2000/svg">
<path d="M230.971 107.154C231.608 94.4671 221.84 83.6661 209.154 83.0289C196.467 82.3918 185.666 92.1597 185.029 104.846L230.971 107.154ZM176.5 163.5L191.447 180.981L176.5 163.5ZM58.8802 173.857C35.8341 188.038 21.3744 211.175 12.9777 228.433C8.62731 237.375 5.53481 245.513 3.51855 251.441C2.50572 254.419 1.75203 256.876 1.23767 258.643C0.980216 259.527 0.781889 260.242 0.64032 260.765C0.569507 261.027 0.512819 261.241 0.46997 261.405C0.448535 261.488 0.430552 261.557 0.415987 261.614C0.408698 261.643 0.40227 261.668 0.396683 261.69C0.393893 261.701 0.391312 261.711 0.388942 261.72C0.38776 261.725 0.38614 261.731 0.385549 261.734C0.38398 261.74 0.382468 261.746 22.6861 267.363C44.9898 272.979 44.9884 272.985 44.987 272.99C44.9866 272.992 44.9853 272.997 44.9845 273C44.9829 273.006 44.9816 273.012 44.9804 273.016C44.978 273.026 44.9764 273.032 44.9756 273.035C44.974 273.041 44.9755 273.036 44.98 273.018C44.9892 272.983 45.0108 272.901 45.0451 272.774C45.1137 272.52 45.2328 272.089 45.4043 271.5C45.7477 270.32 46.2977 268.52 47.0685 266.253C48.6194 261.693 51.0137 255.398 54.3418 248.558C61.3022 234.252 70.9661 220.431 82.9866 213.035L58.8802 173.857ZM208 106C185.029 104.846 185.029 104.836 185.03 104.827C185.03 104.823 185.031 104.814 185.031 104.808C185.032 104.795 185.032 104.783 185.033 104.772C185.034 104.749 185.035 104.727 185.036 104.708C185.039 104.669 185.041 104.637 185.042 104.612C185.045 104.563 185.047 104.541 185.047 104.546C185.046 104.557 185.036 104.675 185.012 104.89C184.965 105.323 184.86 106.139 184.654 107.272C184.24 109.549 183.43 113.023 181.891 117.18C178.827 125.458 172.948 136.276 161.552 146.019L191.447 180.981C209.948 165.161 219.819 147.229 225.031 133.148C227.63 126.125 229.09 120.017 229.911 115.507C230.322 113.246 230.576 111.368 230.733 109.954C230.811 109.246 230.865 108.653 230.903 108.183C230.921 107.949 230.936 107.745 230.947 107.573C230.952 107.487 230.957 107.409 230.961 107.339C230.963 107.304 230.965 107.271 230.967 107.24C230.967 107.225 230.968 107.21 230.969 107.195C230.969 107.188 230.97 107.178 230.97 107.174C230.971 107.164 230.971 107.154 208 106ZM161.552 146.019C152.813 153.492 142.267 155.431 123.657 157.055C106.719 158.532 81.9083 159.688 58.8802 173.857L82.9866 213.035C95.0251 205.627 108.049 204.591 127.654 202.881C145.586 201.317 170.29 199.072 191.447 180.981L161.552 146.019Z" fill="#B0995D"/>
<path d="M207.999 101C207.999 24 133.5 12.5 102.5 38.5C71.5001 64.5 66.5 114 121 125.5" stroke="#B0995D" stroke-width="46" stroke-linecap="round"/>
</svg>
