<svg width="110" height="116" viewBox="0 0 110 116" fill="none" xmlns="http://www.w3.org/2000/svg">
<path d="M110 58C110 90.0325 84.0325 116 52 116L20 116C8.9543 116 -6.84658e-06 107.046 -5.88094e-06 96L7.63192e-07 20C1.72884e-06 8.95429 8.95431 -8.8337e-06 20 -7.86805e-06L52 -5.07052e-06C84.0325 -2.27015e-06 110 25.9675 110 58V58Z" fill="#B0995D"/>
<path d="M97.5649 60.2083C97.5649 85.7899 76.827 106.528 51.2455 106.528L40.2367 106.528C23.6682 106.528 10.2367 93.0963 10.2367 76.5278L10.2367 46.8889C10.2367 28.6635 25.0113 13.8889 43.2367 13.8889L51.2455 13.8889C76.827 13.8889 97.5649 34.6268 97.5649 60.2083V60.2083Z" fill="#FFFACF"/>
</svg>
